<?xml version="1.0" standalone="no"?><!DOCTYPE svg PUBLIC "-//W3C//DTD SVG 1.1//EN" "http://www.w3.org/Graphics/SVG/1.1/DTD/svg11.dtd"><svg t="1721823338518" class="icon" viewBox="0 0 1025 1024" version="1.1" xmlns="http://www.w3.org/2000/svg" p-id="3592" xmlns:xlink="http://www.w3.org/1999/xlink" width="200.1953125" height="200"><path d="M1020.982428 647.42753c-6.207942-8.831917-3.519967-38.783636-1.407987-62.84741 3.327969-37.567648 7.103933-80.191248-6.079943-119.294882-14.97586-44.415584-49.08754-74.175305-101.439049-88.57517a247.42168 247.42168 0 0 0-56.51147-73.59931c-1.855983-2.687975-4.927954-12.095887-7.679928-20.351809-2.367978-7.231932-5.37595-16.255848-9.215913-26.495751A215.293982 215.293982 0 0 1 833.272188 238.471364c-4.991953-18.751824-12.607882-47.039559-25.023765-70.847335-12.287885-23.48778-34.431677-51.19952-69.951345-50.047531-41.087615 1.279988-62.079418 44.031587-80.511245 81.663234-12.479883 25.407762-27.967738 56.959466-42.815598 58.047456-14.91186 1.08799-21.567798-9.727909-33.791684-55.295482-5.183951-19.327819-10.559901-39.295632-20.095811-55.551479C548.730856 125.320425 529.723034 113.480536 507.515242 113.03254 478.075518 112.520545 451.643766 132.23236 443.067846 145.672234c-10.367903 16.191848-29.567723 63.167408-38.783636 99.327069-6.079943 23.871776-14.591863 29.82372-27.519742 38.847636l-3.967963 2.751974c-9.919907 7.039934-17.151839 14.783861-25.59976 23.679778-6.911935 7.42393-14.719862 15.743852-26.367753 26.367753 6.847936-18.815824 11.071896-37.887645 2.431977-79.871251 13.631872-9.59991 23.359781-19.455818 29.631723-29.951719a48.639544 48.639544 0 0 0 4.543957-43.903589c-7.807927-19.19982-28.543732-31.871701-45.439574-27.647741a95.551104 95.551104 0 0 1-49.215539-3.391968C222.077918 140.104287 180.798305 156.360134 144.382646 170.632c-20.927804 8.191923-42.495602 16.639844-54.719487 15.167858-33.791683-4.28796-54.207492 6.591938-65.407386 16.447846-14.847861 13.055878-22.975785 32.639694-22.975785 55.039484 0 19.839814 9.59991 65.08739 95.679103 71.103333 10.879898 15.935851 25.59976 28.351734 42.303603 35.775665-7.679928 42.431602-4.927954 80.767243 8.447921 114.238929a151.870576 151.870576 0 0 0 67.071371 77.183276c42.751599 23.999775 91.391143 23.551779 116.734906-0.831992 4.415959 0.639994 12.79988 4.479958 20.479808 9.279913 5.887945 21.567798 17.599835 41.983606 35.327669 61.631422 2.559976 5.247951 8.127924 29.759721 7.167933 88.639169-0.703993 44.671581-4.799955 78.527264-7.231933 87.679178a8.063924 8.063924 0 0 1-1.151989 1.08799 23.359781 23.359781 0 0 0-20.735805 13.695872c-0.255998 0.447996-5.183951 11.519892-9.151915 23.935775-5.503948 17.279838-9.59991 36.735656 2.239979 50.559526 10.879898 12.607882 35.263669 17.471836 48.895542 19.19982 5.503948 0.767993 11.71189 1.279988 17.983831 1.279988 14.143867 0 29.055728-2.559976 39.48763-11.199895a23.359781 23.359781 0 0 0 8.51192-17.983831c0-36.799655 8.767918-55.359481 17.023841-60.479433a23.359781 23.359781 0 0 0 10.815898-23.167783 443.195845 443.195845 0 0 1-4.991953-51.391518c-0.447996-21.695797 2.751974-29.88772 3.903964-32.127699a23.359781 23.359781 0 0 0 14.015868-25.727759c-2.559976-13.82387-2.11198-40.703618 3.071971-69.567347 21.119802 5.503948 42.367603 7.871926 63.231408 7.871926 50.815524 0 99.327069-14.079868 139.518692-31.039709 13.88787 45.695572 41.535611 87.295182 81.791233 122.238854 0.959991 11.327894 0.639994 25.663759-0.959991 38.719637-2.495977 19.839814-6.911935 29.375725-8.767918 31.871701-28.79973 15.423855-50.879523 62.463414-53.439499 83.455218a29.375725 29.375725 0 0 0 8.063924 24.319772c8.895917 9.279913 21.695797 12.223885 41.023616 12.223885 11.647891 0 25.59976-1.02399 42.495601-2.495977l20.031813-1.535985a23.359781 23.359781 0 0 0 13.759871-5.759946c7.615929-6.655938 17.279838-19.583816 25.471761-61.055428l2.11198-11.327894a23.359781 23.359781 0 0 0 25.59976-27.519742c-5.31195-28.79973-5.887945-77.631272 9.791908-91.007146a23.295782 23.295782 0 0 0-2.11198-37.119652c-14.91186-10.111905-21.247801-23.42378-20.479808-43.135596 0.767993-19.775815 8.51192-41.727609 15.551854-61.311425 4.799955 23.679778 10.111905 47.807552 19.327819 68.095361 13.631872 29.88772 33.983681 46.271566 60.607432 48.639544h2.047981c8.319922 0 15.99985-4.351959 20.22381-11.64789a23.231782 23.231782 0 0 0-1.08799-25.151765z m-135.48673-125.82282c-1.08799 6.591938-4.863954 17.151839-8.959916 28.351734-7.871926 22.015794-17.727834 49.471536-18.815823 76.991278-1.08799 27.199745 6.463939 49.919532 22.39979 67.647366-8.383921 16.191848-12.79988 37.503648-12.991878 63.743403 0 5.567948 0.063999 10.879898 0.383996 15.99985a23.359781 23.359781 0 0 0-18.495827 20.479808c-2.559976 25.215764-8.383921 52.799505-13.439874 65.151389l-9.279913 0.767993c-10.111905 0.895992-24.639769 2.11198-35.711665 2.303978 1.535986-3.19997 3.391968-6.783936 5.631947-10.6239 8.191923-13.951869 15.231857-20.095812 18.047831-21.503799 37.759646-18.943822 37.119652-101.439049 32.639694-127.678803a23.359781 23.359781 0 0 0-8.319922-14.207867 237.181776 237.181776 0 0 1-56.319472-65.279388c-22.911785-39.935626-30.783711-84.28721-23.42378-131.902763a23.359781 23.359781 0 1 0-46.079568-7.167933c-3.519967 22.271791-4.159961 44.159586-2.047981 65.343388-50.303528 22.655788-116.990903 41.407612-181.3103 24.959766 3.647966-9.59991 7.999925-18.687825 13.055877-26.879748a23.359781 23.359781 0 1 0-39.807626-24.511771c-11.839889 19.19982-19.775815 40.57562-25.087765 60.351435a334.588863 334.588863 0 0 0-11.071896 98.751074c-10.6879 11.519892-16.319847 30.207717-16.895842 55.999475-0.383996 17.599835 1.279988 36.031662 3.647966 53.951494-17.471836 18.559826-24.063774 46.655563-25.919757 72.319322a103.103033 103.103033 0 0 1-28.351734-3.775965c1.08799-4.159961 2.751974-9.407912 4.799955-14.783861a53.887495 53.887495 0 0 0 22.847785-18.879823c3.647966-5.119952 7.551929-12.863879 10.879898-45.82357 2.047981-19.519817 3.391968-43.135596 3.775965-66.431378a605.050328 605.050328 0 0 0-2.303978-68.607356c-2.879973-27.263744-7.935926-43.007597-16.895842-52.415509-17.919832-19.903813-26.751749-39.039634-27.647741-60.031437-0.959991-21.119802 6.271941-45.311575 21.951794-73.983307a23.359781 23.359781 0 1 0-40.959616-22.39979c-14.271866 26.111755-23.039784 50.367528-26.239754 73.343313-27.071746-8.447921-42.495602 1.919982-49.919532 9.855907-7.551929 7.42393-33.535686 9.471911-61.503423-6.207941a105.59901 105.59901 0 0 1-46.591563-53.759496C181.118302 435.589516 179.19832 405.509798 185.59826 371.590116c19.711815-1.983981 43.71159-10.6239 69.567348-33.535685a23.359781 23.359781 0 0 0-30.97571-34.943673c-19.519817 17.279838-38.911635 24.703768-56.127474 21.439799-14.91186-2.815974-28.543732-13.82387-36.479658-29.439724a23.359781 23.359781 0 0 0-20.287809-12.79988C80.639244 281.670959 47.99955 274.695025 47.99955 257.223189c0-6.207942 1.279988-14.719862 7.167933-19.903814 7.231932-6.39994 19.583816-6.39994 28.607732-5.183951 24.063774 3.007972 50.11153-7.167933 77.695271-18.047831 30.719712-12.031887 62.591413-24.57577 87.999175-17.407837 23.167783 7.615929 46.719562 8.127924 63.487405 5.823946-2.17598 3.967963-8.767918 12.159886-27.839739 23.231782a23.359781 23.359781 0 0 0-10.879898 25.855757c11.391893 45.82357 6.911935 57.855458 2.17598 70.655338a256.253598 256.253598 0 0 0-1.535986 4.22396c-6.39994 17.791833-1.663984 43.77559 17.279838 56.511471 8.57592 5.759946 19.19982 7.807927 29.695722 5.759946a59.391443 59.391443 0 0 0 27.519742-14.97586 481.275488 481.275488 0 0 0 31.9997-31.487705c7.48793-7.999925 12.415884-13.247876 18.559826-17.599835l3.583966-2.559976c15.935851-11.071896 35.711665-24.831767 46.079568-65.663384 8.767918-34.559676 26.303753-75.263294 32.767693-85.503199C485.30745 167.43203 497.275338 159.112108 507.515242 159.752102c2.239979 0.127999 7.679928 0.511995 13.375875 10.239904 6.39994 10.879898 10.879898 27.77574 15.231857 44.095587 5.439949 20.159811 11.071896 40.959616 21.375799 57.663459 17.919832 28.991728 43.071596 33.471686 61.055428 32.127699 41.471611-3.071971 62.591413-46.079568 81.279238-84.031212 11.391893-23.295782 27.071746-55.167483 40.127624-55.615479 8.959916-0.319997 18.11183 8.127924 26.943747 25.023766 10.111905 19.19982 16.639844 43.583591 21.3758 61.311425a179.19832 179.19832 0 0 0 7.039934 22.719787c3.327969 9.087915 5.951944 17.08784 8.319922 24.127774 5.823945 17.791833 10.111905 30.591713 20.031812 39.743627 15.103858 13.951869 34.239679 33.663684 47.807552 62.847411 15.99985 34.559676 20.735806 75.455293 14.079868 121.59886z m87.55118 58.879448l-0.639994 7.42393a730.553151 730.553151 0 0 1-7.871927-35.19967c-6.719937-33.151689-13.119877-64.703393-29.695721-84.031212a256.509595 256.509595 0 0 0-3.967963-34.559676c19.071821 10.879898 31.551704 25.919757 38.39964 46.079568 10.047906 29.82372 6.719937 67.19937 3.839964 100.28706z" fill="#000000" p-id="3593"></path></svg>